<svg width="1090" height="278" viewBox="0 0 1090 278" fill="none" xmlns="http://www.w3.org/2000/svg">
<path d="M458.459 216.297C452.37 222.95 445.057 228.226 436.969 231.802C428.881 235.379 420.185 237.18 411.414 237.095C404.007 237.332 396.633 235.967 389.746 233.085C382.858 230.203 376.603 225.866 371.366 220.339C361.852 209.878 356.377 194.942 356.377 177.137C356.377 141.495 378.391 117.116 411.414 117.116C420.271 116.985 429.047 118.917 437.113 122.773C445.18 126.631 452.339 132.316 458.079 139.427L486.652 112.797C468.033 88.9738 437.821 76.6611 409.131 76.6611C352.982 76.6611 313.167 117.457 313.167 177.476C313.167 207.162 323.062 232.158 339.749 249.809C356.435 267.46 380.207 277.828 407.638 277.828C443.265 277.828 471.692 262.584 487.647 243.421L458.459 216.297Z" fill="black"/>
<path d="M513.484 0.5578H556.021V274.674H513.484V0.5578Z" fill="black"/>
<path d="M760.914 192.709C761.615 186.739 762.006 180.732 762.084 174.717C762.084 117.876 726.778 76.7107 672.18 76.7107C660.139 76.4611 648.176 78.8129 637.029 83.6211C625.883 88.4293 615.787 95.5923 607.365 104.669C591.41 122.319 581.838 147.316 581.838 177.124C581.838 237.885 622.471 277.877 676.338 277.877C712.492 277.877 738.518 262.448 754.122 241.527L726.252 215.512L724.876 214.279C719.347 221.569 712.296 227.419 704.274 231.374C696.252 235.329 687.475 237.282 678.622 237.082C651.279 237.082 631.546 220.264 625.926 192.709H760.914ZM626.629 156.726C628.528 148.04 632.418 139.978 637.958 133.244C642.568 127.95 648.21 123.767 654.494 120.98C660.78 118.196 667.561 116.873 674.376 117.105C698.674 117.105 713.897 133.12 719.137 156.726H626.629Z" fill="black"/>
<path d="M893.57 76.1228V126.114C888.651 125.713 883.704 125.311 880.689 125.311C848.486 125.311 830.218 149.69 830.218 181.69V274.668H787.74V78.9003H830.218V108.555H830.6C845.032 87.7567 865.729 76.1847 888.271 76.1847L893.57 76.1228Z" fill="black"/>
<path d="M992.62 192.683L961.91 228.696V274.674H919.403V0.5578H961.91V168.706L1037.76 79.5251H1088.23L1021.48 158.307L1089.4 274.674H1041.6L993.41 192.683H992.62Z" fill="black"/>
<path d="M236.388 37.3878L200.838 70.5493C199.721 71.5902 198.261 72.2511 196.694 72.426C195.125 72.6009 193.54 72.2796 192.191 71.5138C178.208 63.6443 162.08 59.7195 145.756 60.2135C129.432 60.7075 113.612 65.5989 100.204 74.2973C91.9576 79.6516 84.7973 86.3309 79.0573 94.0232C69.7436 106.538 64.5048 121.297 63.9712 136.524C63.4377 151.751 67.632 166.798 76.0497 179.854C76.8648 181.11 77.2059 182.583 77.0186 184.042C76.8313 185.499 76.1262 186.857 75.0159 187.897L39.4661 221.058C38.7503 221.73 37.8872 222.251 36.9358 222.582C35.9845 222.915 34.9676 223.051 33.9545 222.983C32.9414 222.914 31.9562 222.642 31.0664 222.185C30.1765 221.728 29.4031 221.097 28.799 220.335C9.5643 195.673 -0.376127 165.764 0.529238 135.277C1.4346 104.79 13.1348 75.4408 33.8036 51.8096C40.1136 44.5793 47.1992 37.9696 54.9502 32.0836C80.2813 12.8085 111.74 1.89752 144.417 1.05299C177.094 0.20847 209.152 9.47796 235.588 27.4151C236.411 27.9768 237.093 28.6981 237.586 29.5293C238.081 30.3605 238.376 31.2817 238.453 32.2296C238.529 33.1775 238.384 34.1296 238.027 35.0201C237.67 35.9105 237.111 36.7183 236.388 37.3878Z" fill="black"/>
<path d="M236.329 241.285L200.796 207.934C199.679 206.887 198.22 206.223 196.653 206.047C195.087 205.871 193.501 206.194 192.153 206.964C178.974 214.426 163.874 218.37 148.483 218.37C133.09 218.37 117.991 214.426 104.811 206.964C103.463 206.194 101.878 205.871 100.311 206.047C98.744 206.223 97.2851 206.887 96.1685 207.934L60.6351 241.285C59.8899 241.956 59.3115 242.775 58.9409 243.68C58.5702 244.586 58.4165 245.557 58.4905 246.525C58.5644 247.493 58.8643 248.433 59.3689 249.279C59.8735 250.127 60.5703 250.858 61.4101 251.423C86.7037 268.696 117.179 278 148.459 278C179.739 278 210.214 268.696 235.508 251.423C236.35 250.862 237.051 250.132 237.561 249.287C238.069 248.442 238.373 247.503 238.452 246.535C238.53 245.567 238.381 244.595 238.015 243.688C237.647 242.781 237.072 241.96 236.329 241.285Z" fill="black"/>
<path d="M148.972 179C171.891 179 190.472 161.315 190.472 139.5C190.472 117.685 171.891 100 148.972 100C126.052 100 107.472 117.685 107.472 139.5C107.472 161.315 126.052 179 148.972 179Z" fill="black"/>
</svg>
