<svg width="901" height="128" viewBox="0 0 901 128" fill="none" xmlns="http://www.w3.org/2000/svg">
<path d="M67.9236 62.8366C71.3356 58.101 69.245 52.1043 63.2542 49.4426C57.2633 46.7808 49.6409 48.462 46.2289 53.1976L6.17786 108.786C2.76593 113.522 4.85653 119.519 10.8474 122.18C16.8382 124.842 24.4606 123.161 27.8726 118.425L67.9236 62.8366Z" fill="black"/>
<path d="M154.252 20.2136C157.663 15.478 155.573 9.48125 149.582 6.81951C143.591 4.15777 135.969 5.83896 132.557 10.5746L92.5057 66.1634C89.0938 70.899 91.1844 76.8957 97.1752 79.5574C103.166 82.2192 110.789 80.538 114.2 75.8024L154.252 20.2136Z" fill="black"/>
<path d="M287.085 20.2155C290.497 15.4799 288.407 9.48314 282.416 6.8214C276.425 4.15966 268.802 5.84085 265.39 10.5764L225.339 66.1653C221.927 70.9008 224.018 76.8976 230.009 79.5593C236 82.221 243.622 80.5399 247.034 75.8043L287.085 20.2155Z" fill="black"/>
<path d="M200.729 62.8366C204.141 58.101 202.051 52.1043 196.06 49.4426C190.069 46.7808 182.447 48.462 179.035 53.1976L138.984 108.786C135.572 113.522 137.662 119.519 143.653 122.18C149.644 124.842 157.266 123.161 160.678 118.425L200.729 62.8366Z" fill="black"/>
<path d="M361.946 127.12C353.873 127.12 346.747 125.363 340.566 121.85C334.512 118.337 329.782 113.293 326.376 106.72C322.971 100.147 321.268 92.3835 321.268 83.43C321.268 74.4765 322.971 66.77 326.376 60.31C329.782 53.85 334.512 48.8635 340.566 45.35C346.747 41.8365 353.873 40.08 361.946 40.08C369.262 40.08 375.695 41.6665 381.245 44.84C386.921 48.0135 390.768 52.15 392.786 57.25H390.705V16.96C390.705 12.6535 391.903 9.42347 394.3 7.27C396.696 5.00347 400.228 3.87 404.895 3.87C409.436 3.87 412.968 5.00347 415.49 7.27C418.013 9.42347 419.274 12.6535 419.274 16.96V113.69C419.274 117.883 418.013 121.113 415.49 123.38C413.093 125.647 409.625 126.78 405.084 126.78C400.543 126.78 397.011 125.647 394.489 123.38C392.092 121.113 390.894 117.883 390.894 113.69V102.13L392.975 108.76C391.209 114.313 387.425 118.79 381.623 122.19C375.947 125.477 369.388 127.12 361.946 127.12ZM370.46 107.91C374.623 107.91 378.217 107.003 381.245 105.19C384.272 103.377 386.669 100.713 388.434 97.2C390.2 93.5735 391.083 88.9835 391.083 83.43C391.083 75.1565 389.191 69.0935 385.407 65.24C381.623 61.2735 376.641 59.29 370.46 59.29C366.424 59.29 362.829 60.14 359.676 61.84C356.648 63.54 354.252 66.2035 352.486 69.83C350.846 73.3435 350.026 77.8765 350.026 83.43C350.026 91.7035 351.918 97.88 355.702 101.96C359.486 105.927 364.406 107.91 370.46 107.91ZM456.045 126.78C451.254 126.78 447.593 125.647 445.072 123.38C442.551 121.113 441.288 117.883 441.288 113.69V53.34C441.288 49.1465 442.484 45.9735 444.883 43.82C447.404 41.5535 450.876 40.42 455.289 40.42C459.829 40.42 463.297 41.5535 465.695 43.82C468.093 45.9735 469.29 49.1465 469.29 53.34V62.18H467.398C468.911 55.38 472.255 50.11 477.425 46.37C482.595 42.63 489.283 40.5335 497.481 40.08C500.636 39.8535 503.029 40.59 504.67 42.29C506.435 43.8765 507.381 46.54 507.508 50.28C507.759 53.7935 506.941 56.57 505.049 58.61C503.284 60.65 500.257 61.8965 495.967 62.35L491.615 62.69C484.426 63.2565 479.067 65.1265 475.533 68.3C472.128 71.4735 470.425 76.0635 470.425 82.07V113.69C470.425 117.883 469.162 121.113 466.641 123.38C464.243 125.647 460.714 126.78 456.045 126.78ZM533.637 126.61C528.973 126.61 525.378 125.42 522.852 123.04C520.459 120.547 519.258 117.09 519.258 112.67V54.53C519.258 49.9965 520.459 46.54 522.852 44.16C525.378 41.6665 528.973 40.42 533.637 40.42C538.178 40.42 541.65 41.6665 544.043 44.16C546.569 46.54 547.827 49.9965 547.827 54.53V112.67C547.827 117.09 546.63 120.547 544.232 123.04C541.839 125.42 538.306 126.61 533.637 126.61ZM533.637 26.48C528.339 26.48 524.243 25.4035 521.339 23.25C518.567 20.9835 517.176 17.81 517.176 13.73C517.176 9.53653 518.567 6.36348 521.339 4.21C524.243 1.94348 528.339 0.809998 533.637 0.809998C538.935 0.809998 542.974 1.94348 545.746 4.21C548.522 6.36348 549.908 9.53653 549.908 13.73C549.908 17.81 548.522 20.9835 545.746 23.25C542.974 25.4035 538.935 26.48 533.637 26.48ZM577.834 125.25C575.058 125.25 572.726 124.627 570.834 123.38C568.942 122.02 567.679 120.32 567.05 118.28C566.416 116.24 566.416 114.03 567.05 111.65C567.807 109.27 569.254 107.06 571.402 105.02L617.756 55.04V60.99H576.699C573.294 60.99 570.645 60.14 568.753 58.44C566.861 56.74 565.915 54.4165 565.915 51.47C565.915 48.2965 566.861 45.9165 568.753 44.33C570.645 42.63 573.294 41.78 576.699 41.78H631.378C634.784 41.78 637.494 42.46 639.514 43.82C641.529 45.18 642.854 46.88 643.487 48.92C644.244 50.8465 644.306 53 643.677 55.38C643.17 57.6465 641.846 59.8 639.703 61.84L592.214 112.84V106.21H636.109C643.298 106.21 646.893 109.383 646.893 115.73C646.893 118.79 645.947 121.17 644.055 122.87C642.163 124.457 639.514 125.25 636.109 125.25H577.834ZM668.736 125.25C665.965 125.25 663.628 124.627 661.736 123.38C659.844 122.02 658.586 120.32 657.952 118.28C657.323 116.24 657.323 114.03 657.952 111.65C658.709 109.27 660.161 107.06 662.304 105.02L708.658 55.04V60.99H667.601C664.195 60.99 661.547 60.14 659.655 58.44C657.763 56.74 656.817 54.4165 656.817 51.47C656.817 48.2965 657.763 45.9165 659.655 44.33C661.547 42.63 664.195 41.78 667.601 41.78H722.28C725.686 41.78 728.401 42.46 730.416 43.82C732.436 45.18 733.76 46.88 734.389 48.92C735.146 50.8465 735.212 53 734.578 55.38C734.077 57.6465 732.753 59.8 730.605 61.84L683.116 112.84V106.21H727.01C734.2 106.21 737.795 109.383 737.795 115.73C737.795 118.79 736.849 121.17 734.957 122.87C733.065 124.457 730.416 125.25 727.01 125.25H668.736ZM785.185 127.12C773.961 127.12 765.57 124.343 760.021 118.79C754.473 113.123 751.696 104.737 751.696 93.63V16.96C751.696 12.6535 752.893 9.42347 755.291 7.27C757.812 5.00347 761.407 3.87 766.076 3.87C770.617 3.87 774.084 5.00347 776.482 7.27C779.003 9.42347 780.266 12.6535 780.266 16.96V92.61C780.266 97.2565 781.34 100.713 783.482 102.98C785.753 105.133 788.718 106.21 792.375 106.21C793.382 106.21 794.328 106.153 795.213 106.04C796.097 105.927 797.043 105.87 798.051 105.87C800.071 105.643 801.456 106.21 802.213 107.57C803.098 108.817 803.538 111.367 803.538 115.22C803.538 118.62 802.781 121.227 801.267 123.04C799.754 124.74 797.422 125.873 794.267 126.44C793.004 126.553 791.556 126.667 789.915 126.78C788.274 127.007 786.699 127.12 785.185 127.12ZM862.025 127.12C851.051 127.12 841.591 125.363 833.644 121.85C825.826 118.223 819.771 113.18 815.481 106.72C811.319 100.147 809.237 92.44 809.237 83.6C809.237 74.9865 811.257 67.45 815.292 60.99C819.327 54.4165 824.941 49.3165 832.131 45.69C839.448 41.95 847.707 40.08 856.916 40.08C863.6 40.08 869.654 41.1 875.079 43.14C880.505 45.0665 885.169 47.9 889.08 51.64C892.992 55.2665 895.953 59.7435 897.973 65.07C899.993 70.2835 901 76.12 901 82.58C901 84.7335 900.243 86.3765 898.73 87.51C897.216 88.53 895.007 89.04 892.108 89.04H832.698V75.78H880.377L877.35 78.16C877.35 73.5135 876.593 69.66 875.079 66.6C873.566 63.4265 871.357 61.0465 868.457 59.46C865.681 57.8735 862.214 57.08 858.051 57.08C853.383 57.08 849.41 58.0435 846.132 59.97C842.854 61.8965 840.328 64.6735 838.564 68.3C836.799 71.9265 835.915 76.29 835.915 81.39V82.75C835.915 91.3635 838.124 97.71 842.537 101.79C847.078 105.87 853.761 107.91 862.592 107.91C865.619 107.91 869.087 107.57 872.998 106.89C876.91 106.21 880.566 105.133 883.972 103.66C886.871 102.413 889.459 102.017 891.729 102.47C894 102.81 895.764 103.717 897.027 105.19C898.29 106.663 898.98 108.363 899.108 110.29C899.359 112.217 898.919 114.143 897.784 116.07C896.648 117.883 894.756 119.413 892.108 120.66C887.818 122.813 882.964 124.4 877.539 125.42C872.241 126.553 867.072 127.12 862.025 127.12Z" fill="black"/>
</svg>
