<svg width="1101" height="186" viewBox="0 0 1101 186" fill="none" xmlns="http://www.w3.org/2000/svg">
<path d="M1077.1 161V67.9H1099.1V161H1077.1ZM1088.1 54.7C1085.66 54.727 1083.26 54.054 1081.18 52.7604C1079.11 51.4668 1077.45 49.6067 1076.4 47.4C1075.7 46 1075.4 44.4 1075.4 42.8C1075.39 41.2083 1075.72 39.633 1076.38 38.1827C1077.03 36.7324 1078 35.4419 1079.2 34.4C1081.6 32.1 1084.8 30.8 1088.2 30.9C1091.7 30.9 1094.6 32.1 1097.2 34.4C1098.39 35.4512 1099.33 36.7459 1099.97 38.1957C1100.61 39.6454 1100.92 41.216 1100.9 42.8C1100.9 46.1 1099.6 48.9 1097.1 51.2C1094.68 53.5062 1091.44 54.7639 1088.1 54.7ZM1032.6 121.8V68H1054.6V161H1033.3V144.5H1032.3C1030.18 149.677 1026.56 154.101 1021.9 157.2C1017.2 160.6 1011.3 162.2 1004.3 162.2C998.721 162.508 993.176 161.152 988.369 158.303C983.561 155.454 979.709 151.242 977.3 146.2C974.6 141 973.3 134.6 973.3 127.2V67.9H995.3V123.8C995.3 129.7 996.8 134.4 1000.1 137.8C1003.3 141.3 1007.5 143.1 1012.8 143.1C1016 143.1 1019.2 142.3 1022.2 140.7C1025.2 139.1 1027.8 136.7 1029.6 133.7C1031.6 130.5 1032.6 126.6 1032.6 121.9V121.8ZM959.3 31L919.3 179.7H900L940 31H959.2H959.3Z" fill="black"/>
<path fill-rule="evenodd" clip-rule="evenodd" d="M182.7 91.3C183.456 92.0443 184.056 92.9316 184.466 93.9102C184.876 94.8888 185.087 95.9391 185.087 97C185.087 98.0608 184.876 99.1111 184.466 100.09C184.056 101.068 183.456 101.956 182.7 102.7L102.7 182.7C101.188 184.212 99.1379 185.061 97 185.061C94.8621 185.061 92.8117 184.212 91.3 182.7C89.7883 181.188 88.939 179.138 88.939 177C88.939 174.862 89.7883 172.812 91.3 171.3L171.3 91.3C172.044 90.5441 172.932 89.9438 173.91 89.5341C174.889 89.1243 175.939 88.9133 177 88.9133C178.061 88.9133 179.111 89.1243 180.09 89.5341C181.068 89.9438 181.956 90.5441 182.7 91.3ZM166.7 3.29995C167.456 4.04434 168.056 4.93164 168.466 5.91021C168.876 6.88878 169.087 7.93907 169.087 8.99995C169.087 10.0608 168.876 11.1111 168.466 12.0897C168.056 13.0683 167.456 13.9556 166.7 14.7L14.7 166.7C13.9514 167.448 13.0628 168.042 12.0848 168.447C11.1068 168.852 10.0586 169.061 8.99998 169.061C7.94139 169.061 6.89317 168.852 5.91517 168.447C4.93716 168.042 4.04852 167.448 3.29998 166.7C2.55145 165.951 1.95768 165.063 1.55257 164.085C1.14747 163.107 0.938965 162.059 0.938965 161C0.938965 159.941 1.14747 158.893 1.55257 157.915C1.95768 156.937 2.55145 156.048 3.29998 155.3L155.3 3.29995C156.044 2.54407 156.932 1.9438 157.91 1.53407C158.889 1.12434 159.939 0.91333 161 0.91333C162.061 0.91333 163.111 1.12434 164.09 1.53407C165.068 1.9438 165.956 2.54407 166.7 3.29995Z" fill="black"/>
<path d="M826.5 106.5V161H804.6V67.9H825.6V83.7H826.6C828.7 78.7 832.3 74.3 836.9 71.3C841.6 68.3 847.5 66.7 854.4 66.7C860.265 66.549 866.064 67.9643 871.2 70.8C876 73.6 879.9 77.8 882.4 82.8C885 88 886.4 94.3 886.3 101.8V161H864.3V105.1C864.3 98.9 862.8 94.1 859.5 90.5C857.802 88.7025 855.732 87.297 853.435 86.3816C851.138 85.4662 848.669 85.063 846.2 85.2C842.4 85.2 839 86.1 836 87.8C833 89.5 830.6 92 829 95C827.4 98.2 826.5 102 826.5 106.5ZM746.7 162.8C738.607 163.293 730.551 161.37 723.553 157.275C716.556 153.18 710.933 147.097 707.4 139.8C703.723 131.989 701.909 123.431 702.1 114.8C701.942 106.15 703.826 97.5848 707.6 89.8C711 82.8 716.3 76.8 723 72.8C729.6 68.8 737.5 66.7 746.6 66.7C753.497 66.5827 760.333 68.0181 766.6 70.9C772.288 73.4971 777.157 77.5995 780.682 82.7636C784.207 87.9277 786.253 93.9571 786.6 100.2H765.6C764.891 95.878 762.783 91.9081 759.6 88.9C756.4 85.9 752.2 84.4 746.9 84.4C742.7 84.4 738.5 85.6 735.1 88C731.7 90.4 729.1 93.8 727.1 98.3C725.109 103.463 724.157 108.968 724.3 114.5C724.3 120.8 725.3 126.3 727.1 130.8C729 135.3 731.6 138.8 735 141.3C738.483 143.734 742.652 144.995 746.9 144.9C750.1 144.9 753 144.3 755.6 143.1C758.1 141.9 760.4 140.1 762 137.7C763.9 135.2 765 132.3 765.6 129.2H786.6C786.296 135.402 784.324 141.407 780.892 146.581C777.46 151.755 772.695 155.908 767.1 158.6C760.712 161.545 753.732 162.982 746.7 162.8ZM633.1 162.6C625.975 162.735 618.977 160.704 613.031 156.776C607.085 152.847 602.471 147.207 599.8 140.6C596.25 132.404 594.543 123.528 594.8 114.6C594.8 104.2 596.5 95.5 599.8 88.4C603.3 81.2 607.9 75.8 613.8 72.2C618.662 69.135 624.191 67.2891 629.919 66.819C635.647 66.3489 641.404 67.2687 646.7 69.5C649.9 71.1 652.7 73.3 655 76.1C656.9 78.3 658.5 80.7 659.8 83.3H660.8V36.9H682.8V161H661.2V146.3H659.8C658.5 148.9 656.8 151.3 654.9 153.5C652.194 156.57 648.825 158.984 645.048 160.561C641.271 162.137 637.186 162.835 633.1 162.6ZM639.3 144.6C643.57 144.74 647.762 143.436 651.2 140.9C654.4 138.3 656.9 134.8 658.6 130.3C660.37 125.225 661.217 119.874 661.1 114.5C661.1 108.5 660.3 103.2 658.6 98.8C657.194 94.6891 654.623 91.0757 651.2 88.4C647.731 85.8494 643.503 84.5456 639.2 84.7C634.4 84.7 630.3 86 627 88.5C623.8 91.1 621.3 94.5 619.6 99.1C617.864 104.046 617.018 109.259 617.1 114.5C617.1 120.3 618 125.5 619.6 130C621.3 134.6 623.8 138.1 627.1 140.8C630.4 143.3 634.5 144.6 639.3 144.6ZM527.4 162.9C521.5 162.9 516.2 161.9 511.4 159.7C506.881 157.687 503.03 154.426 500.3 150.3C497.6 146.1 496.3 141 496.3 134.9C496.3 129.6 497.3 125.3 499.2 121.9C501 118.5 503.8 115.6 507.1 113.6C510.603 111.463 514.415 109.878 518.4 108.9C522.7 107.9 527.1 107 531.6 106.6L544.9 105.1C548.3 104.6 550.7 103.8 552.3 102.9C553.8 101.9 554.6 100.3 554.6 98.2V97.9C554.6 93.3 553.2 89.7 550.6 87.2C547.8 84.7 543.9 83.5 538.8 83.5C534.301 83.2743 529.848 84.5014 526.1 87C523.201 89.0582 521.003 91.9548 519.8 95.3L499.3 92.4C500.698 87.0922 503.409 82.2216 507.184 78.2371C510.958 74.2525 515.675 71.2823 520.9 69.6C530.987 66.3326 541.776 65.8831 552.1 68.3C556.5 69.3 560.6 71 564.3 73.5C568 75.9 571.1 79.3 573.2 83.2C575.4 87.4 576.5 92.5 576.5 98.7V161H555.5V148.2H554.7C551.585 154.104 546.378 158.633 540.1 160.9C536.5 162.2 532.2 162.9 527.4 162.9ZM533.1 146.8C537.5 146.8 541.3 145.8 544.5 144.2C547.6 142.5 550.2 140.1 552 137.2C553.8 134.2 554.7 131 554.7 127.6V116.6C554 117.2 552.8 117.7 551.1 118.2C547.323 119.079 543.522 119.846 539.7 120.5L534.5 121.2C531.3 121.6 528.3 122.4 525.8 123.4C523.4 124.2 521.3 125.7 519.6 127.6C518.1 129.4 517.4 131.6 517.4 134.6C517.4 138.6 518.9 141.6 521.8 143.6C524.8 145.7 528.5 146.8 533.1 146.8ZM417.9 106.5V161H395.9V36.9H417.4V83.7H418.4C420.5 78.7 424.1 74.3 428.6 71.3C433.875 68.0411 440.005 66.4388 446.2 66.7C452.6 66.7 458.2 68 463.1 70.7C467.9 73.5 471.6 77.4 474.2 82.7C476.9 87.8 478.2 94.2 478.2 101.7V161H456.3V105.1C456.3 98.9 454.7 94 451.4 90.5C449.683 88.7001 447.595 87.2941 445.282 86.3791C442.968 85.4641 440.484 85.0618 438 85.2C434.1 85.2 430.6 86.1 427.6 87.8C424.6 89.4 422.1 92 420.4 95C418.7 98.2 417.9 102 417.9 106.5ZM375.9 92.5L355.9 94.7C355.26 92.5177 354.161 90.497 352.678 88.7726C351.195 87.0483 349.362 85.6599 347.3 84.7C344.586 83.5418 341.649 82.9955 338.7 83.1C334.1 83.1 330.3 84.1 327.2 86.1C324.2 88.1 322.6 90.6 322.6 93.7C322.545 94.9586 322.788 96.2125 323.309 97.3594C323.831 98.5063 324.616 99.5138 325.6 100.3C327.6 102 331.1 103.4 335.8 104.5L351.7 107.9C358.934 109.049 365.714 112.162 371.3 116.9C375.6 121.1 377.8 126.5 377.9 133.1C377.9 138.7 376.1 144.1 372.7 148.6C369.063 153.296 364.227 156.924 358.7 159.1C352.148 161.69 345.144 162.948 338.1 162.8C328.426 163.274 318.836 160.798 310.6 155.7C307.223 153.437 304.363 150.485 302.209 147.038C300.054 143.591 298.654 139.727 298.1 135.7L319.5 133.5C320.5 137.7 322.5 140.9 325.7 143.1C328.9 145.2 333 146.3 338 146.3C343.2 146.3 347.4 145.2 350.6 143.1C353.8 140.9 355.4 138.3 355.4 135.1C355.42 133.837 355.151 132.585 354.614 131.441C354.076 130.298 353.285 129.292 352.3 128.5C350.3 126.8 347.1 125.5 342.8 124.5L326.9 121.2C318 119.3 311.4 116.2 307.1 111.8C304.965 109.553 303.307 106.897 302.224 103.993C301.142 101.089 300.657 97.9961 300.8 94.9C300.8 89.2 302.3 84.2 305.4 80C308.6 75.8 313 72.5 318.7 70.2C324.975 67.7567 331.668 66.5676 338.4 66.7C349.3 66.7 357.9 69 364.2 73.7C370.5 78.3 374.4 84.6 375.9 92.5Z" fill="black"/>
</svg>
